<svg xmlns="http://www.w3.org/2000/svg" width="220" height="56" fill="none" viewBox="0 0 220 56"><path fill="#EE3643" d="M0 0h220v56H0z"/><path fill="#B52933" d="M0 50.4h220V56H0z"/><path fill="#fff" fill-rule="evenodd" d="M159.699 17.538v16.566h-2.11V17.538h-3.751v-1.841h9.613v1.84h-3.752Zm-8.123 9.742a3.055 3.055 0 0 1-1.384 1.105c-.554.219-1.215.328-1.981.328a10.7 10.7 0 0 1-1.219-.079 10.108 10.108 0 0 1-1.125-.184v5.654h-2.11V15.96a10.02 10.02 0 0 1 1.793-.408 15.112 15.112 0 0 1 1.958-.118c.938 0 1.735.11 2.391.329.657.219 1.188.583 1.595 1.09.406.51.703 1.184.891 2.026.187.841.281 1.884.281 3.129 0 1.28-.09 2.349-.27 3.208-.179.859-.453 1.547-.82 2.064Zm-1.196-7.639c-.117-.63-.301-1.13-.551-1.499a2.02 2.02 0 0 0-.949-.775c-.383-.15-.841-.224-1.372-.224h-1.641v9.73h1.641c.531 0 .989-.075 1.372-.224a2.02 2.02 0 0 0 .949-.776c.25-.368.434-.867.551-1.498.117-.632.176-1.42.176-2.367 0-.947-.059-1.736-.176-2.367Zm-11.898 9.73h-4.689l-1.055 4.733h-2.11l3.985-18.407h3.048l3.986 18.407h-2.11l-1.055-4.733Zm-2.298-11.044h-.094l-1.945 9.203h3.985l-1.946-9.204Zm-10.128 2.103h-.117l-3.4 11.307h-2.11L117.03 20.43h-.117l-.704 13.674h-2.11l.938-18.407h2.579l3.821 12.622h.094l3.822-12.622h2.579l.937 18.407h-2.11l-.703-13.674Zm-15.755 11.965c-.437.718-.965 1.227-1.582 1.525-.618.298-1.325.447-2.122.447-.797 0-1.504-.15-2.122-.447-.617-.298-1.145-.807-1.582-1.525-.438-.72-.77-1.688-.997-2.906-.226-1.218-.34-2.748-.34-4.589 0-1.84.114-3.37.34-4.588.227-1.219.559-2.187.997-2.906.437-.719.965-1.227 1.582-1.525.618-.298 1.325-.447 2.122-.447.797 0 1.504.149 2.122.447.617.298 1.145.806 1.582 1.525.438.719.77 1.687.997 2.906.226 1.218.34 2.748.34 4.588 0 1.841-.114 3.37-.34 4.589-.227 1.218-.559 2.187-.997 2.906Zm-1.02-11.386c-.164-1.017-.379-1.823-.644-2.42-.266-.596-.579-1.008-.938-1.235a2.037 2.037 0 0 0-1.102-.342c-.375 0-.742.114-1.102.341-.359.228-.672.64-.938 1.236-.265.597-.48 1.403-.644 2.42-.165 1.016-.247 2.314-.247 3.891 0 1.578.082 2.875.247 3.892.164 1.017.379 1.823.644 2.42.266.595.579 1.007.938 1.235.36.228.727.342 1.102.342.375 0 .742-.114 1.102-.342.359-.228.672-.64.938-1.236.265-.596.48-1.402.644-2.419.164-1.017.247-2.314.247-3.892 0-1.577-.083-2.875-.247-3.891Zm-12.648 4.68H91.71v8.415H89.6V15.697h2.11v8.152h4.923v-8.152h2.11v18.407h-2.11v-8.415Zm-11.136 8.415-2.93-7.889-2.93 7.889h-2.11l3.516-9.467-3.165-8.94h2.11l2.579 7.363 2.579-7.363h2.11l-3.165 8.94 3.517 9.467h-2.11ZM68.266 15.697h7.97v1.84h-5.86v6.049h5.157v1.84h-5.157v6.837h5.86v1.84h-7.97V15.698Zm-5.627 18.407h-2.11V17.538h-3.751v-1.841h9.612v1.84h-3.751v16.567Z" clip-rule="evenodd"/></svg>