<svg width="220" height="50" viewBox="0 0 220 50" fill="none" xmlns="http://www.w3.org/2000/svg"><path fill="#EE3643" d="M0 0h220v50H0z"/><path fill="#B52933" d="M0 45h220v5H0z"/><path fill-rule="evenodd" clip-rule="evenodd" d="M159.7 15.7v14.7h-2.1V15.7h-3.8V14h9.7v1.7h-3.8Zm-8.1 8.7a3 3 0 0 1-1.4 1 6 6 0 0 1-2 .2 12 12 0 0 1-2.3-.2v5h-2.1V14.2a11 11 0 0 1 3.7-.4c1 0 1.7 0 2.4.3.7.2 1.2.5 1.6 1 .4.4.7 1 .9 1.8a12.8 12.8 0 0 1 0 5.7c-.2.7-.5 1.3-.8 1.8Zm-1.2-6.9c-.1-.5-.3-1-.6-1.3a2 2 0 0 0-1-.7l-1.3-.2H146V24h1.6c.5 0 1 0 1.4-.2a2 2 0 0 0 1-.7l.5-1.3.2-2.2-.2-2Zm-12 8.7h-4.6l-1 4.2h-2.2l4-16.4h3l4 16.4h-2l-1.1-4.2Zm-2.2-9.8h-.1l-2 8.2h4l-2-8.2ZM126 18.2h-.2l-3.4 10.1h-2l-3.5-10-.8 12.1h-2.1l1-16.4h2.5l3.8 11.3h.1l3.9-11.3h2.5l1 16.4h-2.1l-.7-12.2ZM110.3 29c-.4.7-1 1.1-1.6 1.4-.6.3-1.3.4-2.1.4s-1.5-.1-2.1-.4c-.6-.3-1.2-.7-1.6-1.4-.4-.6-.8-1.5-1-2.6-.2-1-.3-2.4-.3-4 0-1.7 0-3 .3-4.2.2-1 .6-2 1-2.6.4-.6 1-1 1.6-1.3.6-.3 1.3-.4 2.1-.4s1.5.1 2.1.4c.6.2 1.2.7 1.6 1.3.4.7.8 1.5 1 2.6.2 1.1.3 2.5.3 4.1 0 1.7 0 3-.3 4.1-.2 1.1-.6 2-1 2.6Zm-1-10.1c-.2-1-.4-1.7-.7-2.2-.2-.5-.5-.9-.9-1.1-.4-.2-.7-.3-1.1-.3-.4 0-.7 0-1.1.3-.4.2-.7.6-1 1.1l-.6 2.2c-.2.9-.2 2-.2 3.4s0 2.6.2 3.5c.2 1 .4 1.6.7 2.2.2.5.5.9.9 1 .4.3.7.4 1.1.4.4 0 .7-.1 1.1-.3.4-.2.7-.6 1-1.1l.6-2.2.2-3.5c0-1.4 0-2.5-.2-3.4Zm-12.7 4.1h-4.9v7.5h-2.1V14h2.1v7.3h5V14h2v16.4h-2V23Zm-11.1 7.5-3-7-2.9 7h-2L81 22 78 14h2l2.7 6.6L85 14h2.2L84 22l3.5 8.4h-2.1ZM68.3 14h8v1.7h-6V21h5.2v1.6h-5.1v6.1h5.8v1.6h-8V14Zm-5.7 16.4h-2V15.7h-3.8V14h9.6v1.7h-3.8v14.7Z" fill="#fff"/></svg>