<svg width="36" height="36" viewBox="0 0 36 36" fill="none" xmlns="http://www.w3.org/2000/svg">
<path fill-rule="evenodd" clip-rule="evenodd" d="M17.9131 1.2141C27.1009 1.2141 34.549 8.66232 34.549 17.8502C34.549 27.0377 27.1009 34.4859 17.9131 34.4859C8.72536 34.4859 1.27728 27.0377 1.27728 17.8502C1.27728 8.66232 8.72536 1.2141 17.9131 1.2141Z" fill="white" fill-opacity="0.1"/>
<path d="M18.04 7C11.9485 7 7 11.9485 7 18.04C7 24.1315 11.9485 29.08 18.04 29.08C24.1315 29.08 29.08 24.1315 29.08 18.04C29.08 11.9485 24.1315 7 18.04 7ZM18.04 7.96C23.6127 7.96 28.12 12.4673 28.12 18.04C28.12 23.6127 23.6127 28.12 18.04 28.12C17.0206 28.12 16.0373 27.9674 15.1103 27.6869C15.5232 26.9965 16.0563 26.0097 16.2681 25.195C16.3939 24.7119 16.9113 22.7416 16.9113 22.7416C17.2474 23.3834 18.2297 23.9266 19.2756 23.9266C22.3879 23.9266 24.6316 21.0643 24.6316 17.5075C24.6316 14.0975 21.849 11.5469 18.2688 11.5469C13.8145 11.5469 11.4503 14.5364 11.4503 17.7916C11.4503 19.3054 12.2555 21.1899 13.5447 21.79C13.74 21.8809 13.8448 21.8415 13.8897 21.6522C13.9242 21.5085 14.0984 20.8081 14.1766 20.4822C14.2016 20.3782 14.1895 20.2883 14.1053 20.1859C13.6786 19.6684 13.3366 18.7177 13.3366 17.8309C13.3366 15.5546 15.0599 13.3516 17.9959 13.3516C20.5311 13.3516 22.3066 15.0798 22.3066 17.5506C22.3066 20.3422 20.897 22.2766 19.0628 22.2766C18.0499 22.2766 17.2914 21.4386 17.5347 20.4109C17.8264 19.1844 18.3897 17.8609 18.3897 16.975C18.3897 16.1827 17.9645 15.5219 17.0837 15.5219C16.0482 15.5219 15.2162 16.5925 15.2162 18.0278C15.2162 18.9411 15.5256 19.5597 15.5256 19.5597C15.5256 19.5597 14.5027 23.8847 14.3153 24.6897C14.1276 25.4941 14.1778 26.5775 14.2553 27.3841C10.5621 25.8892 7.96 22.2733 7.96 18.04C7.96 12.4673 12.4673 7.96 18.04 7.96Z" fill="#FEFAFA"/>
</svg>
