<svg width="33" height="33" viewBox="0 0 33 33" fill="none" xmlns="http://www.w3.org/2000/svg">
<path fill-rule="evenodd" clip-rule="evenodd" d="M16.5 0C25.6127 0 33 7.38737 33 16.5002C33 25.6126 25.6127 33 16.5 33C7.38724 33 0 25.6126 0 16.5002C0 7.38737 7.38724 0 16.5 0Z" fill="white" fill-opacity="0.1"/>
<path d="M16.3224 5.7387C16.273 5.7395 16.2241 5.74797 16.1773 5.76381C15.3699 5.77573 14.5763 5.86232 13.8248 6.0502C13.4989 6.12956 13.1767 6.22984 12.8569 6.34682C12.7802 6.35545 12.7068 6.38258 12.643 6.42585C12.2341 6.57538 11.8372 6.74859 11.4602 6.94843C10.8414 7.26981 10.2619 7.66888 9.71957 8.11259C9.64698 8.14208 9.58278 8.18903 9.53267 8.24927C9.48201 8.29164 9.43135 8.33391 9.38204 8.37945C8.75425 8.93748 8.191 9.56996 7.70739 10.268C7.56508 10.4726 7.4347 10.6857 7.30942 10.9003C7.25926 10.9567 7.22324 11.0243 7.20435 11.0974C6.65459 12.07 6.2579 13.1421 6.04855 14.2746C6.01652 14.3416 6.0006 14.4152 6.00206 14.4894C5.97436 14.6441 5.9478 14.7999 5.93046 14.9646C5.88113 15.3765 5.85607 15.7936 5.85607 16.2189C5.85607 16.6443 5.88113 17.0614 5.93046 17.4733C5.9478 17.638 5.97436 17.7938 6.00206 17.9484C6.00074 18.0224 6.01666 18.0956 6.04855 18.1623C6.2577 19.2944 6.65321 20.3663 7.20249 21.3386C7.22165 21.4126 7.25833 21.4808 7.30942 21.5376C7.43483 21.7524 7.56491 21.966 7.70739 22.1709C8.19152 22.8695 8.75486 23.4967 9.38018 24.0575C9.42934 24.103 9.48033 24.1445 9.53081 24.1868L9.53174 24.1877C9.58215 24.2489 9.64703 24.2965 9.7205 24.3262H9.72143C10.2633 24.7694 10.8421 25.1684 11.4602 25.4895C11.8372 25.6893 12.2341 25.8625 12.643 26.012C12.7066 26.0552 12.7796 26.0823 12.8559 26.0911C13.1761 26.2082 13.4986 26.3083 13.8248 26.3877C14.5763 26.5756 15.3699 26.6622 16.1773 26.6741C16.2762 26.7075 16.3834 26.7075 16.4823 26.6741C17.2897 26.6622 18.0833 26.5756 18.8348 26.3877C19.1608 26.3083 19.4829 26.208 19.8028 26.0911C19.8794 26.0824 19.9528 26.0553 20.0167 26.012C20.4256 25.8625 20.8224 25.6893 21.1994 25.4895C21.8182 25.1681 22.3978 24.769 22.9401 24.3253C23.0127 24.2958 23.0769 24.2489 23.127 24.1886C23.1782 24.1458 23.2297 24.1036 23.2795 24.0575C23.9048 23.4967 24.4681 22.8695 24.9523 22.1709V22.1699C25.0946 21.9653 25.225 21.7522 25.3502 21.5376C25.4004 21.4812 25.4364 21.4136 25.4553 21.3405C26.0051 20.3678 26.4018 19.2958 26.6111 18.1632C26.6431 18.0962 26.6591 18.0227 26.6576 17.9484C26.6853 17.7938 26.7119 17.638 26.7292 17.4733C26.7785 17.0614 26.8036 16.6443 26.8036 16.2189C26.8036 15.7936 26.7785 15.3765 26.7292 14.9646C26.7119 14.7999 26.6853 14.6441 26.6576 14.4894C26.6589 14.4155 26.643 14.3423 26.6111 14.2756C26.402 13.1435 26.0064 12.0716 25.4572 11.0992C25.438 11.0253 25.4013 10.957 25.3502 10.9003C25.225 10.6857 25.0946 10.4726 24.9523 10.268V10.267C24.4687 9.56928 23.9052 8.93733 23.2776 8.37945C23.229 8.33451 23.1788 8.29297 23.1288 8.25113C23.1285 8.25082 23.1282 8.25051 23.1279 8.2502C23.0775 8.18903 23.0126 8.14141 22.9392 8.11166C22.9388 8.11166 22.9385 8.11166 22.9382 8.11166C22.3964 7.66849 21.8176 7.26949 21.1994 6.94843C20.8224 6.74859 20.4256 6.57538 20.0167 6.42585C19.9531 6.38272 19.88 6.3556 19.8037 6.34682C19.4836 6.2297 19.1611 6.12963 18.8348 6.0502C18.0833 5.86232 17.2897 5.77573 16.4823 5.76381C16.4308 5.74637 16.3767 5.73788 16.3224 5.7387ZM12.7546 6.37657C12.7513 6.37773 12.7486 6.38007 12.7453 6.38122C12.7438 6.38179 12.7422 6.38158 12.7406 6.38215L12.7546 6.37657ZM19.9051 6.37657L19.919 6.38215C19.9175 6.38158 19.9159 6.38179 19.9144 6.38122C19.9111 6.38007 19.9084 6.37773 19.9051 6.37657ZM15.8537 6.75502V8.6584C15.3971 8.68729 14.9393 8.71526 14.5083 8.8202C14.508 8.8202 14.5076 8.8202 14.5073 8.8202C14.3973 8.8472 14.2899 8.88797 14.181 8.91969L13.5301 7.13346C13.7035 7.08012 13.8702 7.01883 14.0526 6.97446C14.0536 6.97415 14.0545 6.97384 14.0554 6.97353C14.6273 6.83057 15.2401 6.78625 15.8537 6.75502ZM16.8059 6.75502C17.4196 6.78625 18.0324 6.83057 18.6042 6.97353C18.6052 6.97384 18.6061 6.97415 18.607 6.97446C18.7894 7.01883 18.9562 7.08012 19.1296 7.13346L18.4787 8.91969C18.3698 8.88797 18.2624 8.8472 18.1523 8.8202C18.152 8.8202 18.1517 8.8202 18.1514 8.8202C17.7204 8.71526 17.2626 8.68729 16.8059 8.6584V6.75502ZM12.6384 7.46542L13.2883 9.2535C13.1216 9.32632 12.9517 9.38819 12.7899 9.47573L12.789 9.47666C12.5336 9.61114 12.3057 9.79868 12.0646 9.96204C11.9674 9.97485 11.8764 10.0174 11.8043 10.0838L10.6066 8.65747C11.0222 8.34293 11.4419 8.03001 11.9028 7.79086C11.9041 7.79025 11.9053 7.78963 11.9066 7.789C12.1446 7.66281 12.3927 7.56876 12.6384 7.46542ZM20.0213 7.46542C20.2669 7.56876 20.515 7.66281 20.7531 7.789C20.7543 7.78963 20.7556 7.79025 20.7568 7.79086C21.2178 8.03001 21.6375 8.34293 22.053 8.65747L20.8554 10.0838C20.7831 10.0177 20.6922 9.97552 20.595 9.96297C20.3538 9.7995 20.1262 9.61122 19.8707 9.47666C19.7085 9.38889 19.5384 9.32649 19.3713 9.2535L20.0213 7.46542ZM9.86742 9.25722L11.0957 10.7208C10.7186 11.0804 10.3568 11.4594 10.058 11.8924C10.0317 11.9302 10.0116 11.9696 9.98644 12.0077L8.33597 11.0546C8.38782 10.974 8.43527 10.8888 8.48939 10.811C8.48939 10.8107 8.48939 10.8104 8.48939 10.8101C8.88687 10.2364 9.36119 9.72826 9.86742 9.25722ZM22.7922 9.25722C23.2985 9.72826 23.7728 10.2364 24.1703 10.8101C24.1703 10.8104 24.1703 10.8107 24.1703 10.811C24.2244 10.8888 24.2718 10.974 24.3237 11.0546L22.6732 12.0077C22.648 11.9696 22.6279 11.9302 22.6016 11.8924L22.5998 11.8905C22.3013 11.4583 21.9404 11.0798 21.5639 10.7208L22.7922 9.25722ZM15.8537 9.61056V11.4823C15.159 11.5518 14.5095 11.775 13.9346 12.1118L12.828 10.5897C12.9669 10.5038 13.0878 10.3948 13.2334 10.3182C13.235 10.3172 13.2366 10.3163 13.2381 10.3154C13.4798 10.1843 13.739 10.0737 14.0034 9.97506C14.0395 9.96586 14.0745 9.95244 14.1075 9.93508C14.3077 9.86159 14.5136 9.79857 14.7342 9.74446L14.7333 9.74539C15.0923 9.65799 15.4744 9.63791 15.8537 9.61056ZM16.8059 9.61056C17.1852 9.63791 17.5674 9.65798 17.9264 9.74539L17.9254 9.74446C18.1464 9.79865 18.3526 9.86146 18.5531 9.93508C18.5867 9.9529 18.6222 9.96663 18.6591 9.97599C18.9224 10.0744 19.1807 10.1848 19.4216 10.3154C19.4231 10.3163 19.4247 10.3172 19.4262 10.3182C19.5719 10.3948 19.6927 10.5038 19.8316 10.5897L18.7251 12.1118C18.1501 11.775 17.5007 11.5518 16.8059 11.4823V9.61056ZM12.0414 11.1262L13.1656 12.6735C12.6612 13.1241 12.2513 13.6778 11.9744 14.3044L10.1659 13.7149C10.2732 13.4436 10.3912 13.1798 10.535 12.9329C10.5571 12.9026 10.5755 12.8698 10.5899 12.8353C10.6705 12.6967 10.7523 12.5626 10.841 12.4354C10.8413 12.4348 10.8416 12.4342 10.8419 12.4336C11.1482 11.9897 11.5089 11.5845 11.9094 11.2285C11.91 11.2279 11.9106 11.2272 11.9112 11.2266C11.9406 11.2002 11.9574 11.1863 11.9782 11.169C11.9788 11.1687 11.9794 11.1684 11.98 11.168C12.0015 11.1557 12.0221 11.1417 12.0414 11.1262ZM20.6183 11.1262C20.6371 11.141 20.657 11.1544 20.6778 11.1662C20.6992 11.1839 20.7175 11.1988 20.7484 11.2266C20.7491 11.2272 20.7497 11.2279 20.7503 11.2285C21.1508 11.5845 21.5115 11.9897 21.8178 12.4336C21.8181 12.4342 21.8184 12.4348 21.8187 12.4354C21.9075 12.5628 21.989 12.6974 22.0697 12.8362C22.0843 12.8715 22.103 12.9049 22.1255 12.9357C22.1258 12.936 22.1262 12.9363 22.1265 12.9366C22.2686 13.1809 22.3867 13.4436 22.4965 13.714L20.6852 14.3044C20.4084 13.6778 19.9984 13.1241 19.4941 12.6735L20.6183 11.1262ZM7.87941 11.8896L9.52989 12.8418C9.41982 13.0638 9.29775 13.2809 9.21188 13.5131V13.514C9.18695 13.5778 9.17841 13.6493 9.15516 13.714C9.11658 13.7632 9.0881 13.8197 9.07135 13.88C9.05459 13.9403 9.0499 14.0033 9.05752 14.0654C9.02056 14.1867 8.98486 14.3085 8.95431 14.4327L7.07603 14.1017C7.2515 13.3236 7.52206 12.5828 7.87941 11.8896ZM24.7802 11.8896C25.1376 12.5828 25.4082 13.3236 25.5836 14.1017L23.7072 14.4327C23.6766 14.306 23.6404 14.1812 23.6031 14.0571C23.6156 13.9374 23.5824 13.8175 23.5101 13.7214C23.486 13.6538 23.4786 13.58 23.4524 13.5131C23.364 13.2818 23.2423 13.0633 23.1316 12.8408L24.7802 11.8896ZM16.274 12.4131C16.3123 12.4178 16.351 12.4178 16.3893 12.4131C17.1635 12.425 17.8808 12.6641 18.4759 13.0696C18.5231 13.1258 18.5826 13.1703 18.6498 13.1997C19.2244 13.6414 19.6667 14.2427 19.9144 14.9395C19.9206 15.0151 19.9449 15.0881 19.985 15.1524C20.0832 15.491 20.1385 15.848 20.1385 16.2189C20.1385 16.5893 20.0828 16.9455 19.985 17.2836C19.9446 17.3485 19.9203 17.4222 19.9144 17.4984C19.667 18.1944 19.2253 18.7948 18.6516 19.2363C18.5836 19.266 18.5234 19.3112 18.4759 19.3683C17.8798 19.7744 17.1612 20.0136 16.3856 20.0248C16.3473 20.0201 16.3086 20.0201 16.2703 20.0248C14.6375 19.9997 13.2633 18.9559 12.7453 17.4984C12.739 17.4228 12.7148 17.3498 12.6746 17.2855C12.5765 16.9469 12.5212 16.5899 12.5212 16.2189C12.5212 15.8486 12.5768 15.4924 12.6746 15.1543C12.7151 15.0894 12.7393 15.0157 12.7453 14.9395C13.2637 13.4809 14.6396 12.4366 16.274 12.4131ZM22.7774 14.6233C22.8096 14.7542 22.8613 14.8773 22.8852 15.012C22.8878 15.0489 22.8947 15.0855 22.9057 15.1208C22.9205 15.2207 22.9354 15.3179 22.9457 15.41C22.9457 15.4112 22.9457 15.4125 22.9457 15.4137C22.9769 15.6775 22.9949 15.9493 22.9949 16.2189C22.9949 16.4885 22.977 16.7604 22.9457 17.0242C22.9457 17.0254 22.9457 17.0267 22.9457 17.0279C22.9354 17.1205 22.9206 17.2184 22.9057 17.3189C22.8949 17.3534 22.888 17.389 22.8852 17.4249C22.8612 17.56 22.8097 17.6834 22.7774 17.8146L20.98 17.2297C21.0509 16.9035 21.0906 16.566 21.0906 16.2189C21.0906 15.8719 21.0509 15.5344 20.98 15.2082L22.7774 14.6233ZM9.88416 14.6243L11.6797 15.2082C11.6087 15.5344 11.569 15.8719 11.569 16.2189C11.569 16.566 11.6087 16.9035 11.6797 17.2297L9.88416 17.8136C9.85128 17.683 9.79831 17.5587 9.77443 17.4249C9.7718 17.3883 9.76493 17.3521 9.75398 17.3171C9.73919 17.2172 9.72422 17.1199 9.71399 17.0279C9.714 17.0267 9.714 17.0254 9.71399 17.0242C9.68269 16.7603 9.66471 16.4885 9.66471 16.2189C9.66471 15.9493 9.68269 15.6775 9.71399 15.4137C9.714 15.4125 9.714 15.4112 9.71399 15.41C9.72429 15.3174 9.73908 15.2195 9.75398 15.1189C9.76472 15.0848 9.77159 15.0496 9.77443 15.0139C9.79834 14.8798 9.85121 14.7552 9.88416 14.6243ZM6.88169 15.0343L8.76462 15.3663C8.73378 15.6445 8.71255 15.9298 8.71255 16.2189C8.71255 16.5081 8.73378 16.7934 8.76462 17.0716L6.88169 17.4036C6.88059 17.3937 6.87808 17.3837 6.87704 17.3738C6.87675 17.3713 6.87644 17.3688 6.87611 17.3664C6.83081 16.9904 6.80823 16.6099 6.80823 16.2189C6.80823 15.828 6.83081 15.4475 6.87611 15.0715C6.87644 15.069 6.87675 15.0666 6.87704 15.0641C6.87808 15.0542 6.88059 15.0442 6.88169 15.0343ZM25.778 15.0343C25.7791 15.0442 25.7816 15.0542 25.7826 15.0641C25.7829 15.0666 25.7832 15.069 25.7835 15.0715C25.8288 15.4475 25.8514 15.828 25.8514 16.2189C25.8514 16.6099 25.8288 16.9904 25.7835 17.3664C25.7832 17.3688 25.7829 17.3713 25.7826 17.3738C25.7816 17.3837 25.7791 17.3937 25.778 17.4036L23.895 17.0716C23.9259 16.7934 23.9471 16.5081 23.9471 16.2189C23.9471 15.9298 23.9259 15.6445 23.895 15.3663L25.778 15.0343ZM8.95431 18.0052C8.98493 18.1297 9.02045 18.2518 9.05752 18.3734C9.04237 18.4986 9.07748 18.6246 9.15516 18.7239C9.17841 18.7886 9.18695 18.86 9.21188 18.9239V18.9248C9.29775 19.157 9.41982 19.3741 9.52989 19.5961L7.87941 20.5483C7.52206 19.855 7.2515 19.1142 7.07603 18.3362L8.95431 18.0052ZM23.7072 18.0052L25.5836 18.3362C25.4082 19.1142 25.1376 19.8551 24.7802 20.5483L23.1316 19.5971C23.2423 19.3746 23.364 19.1561 23.4524 18.9248C23.4787 18.8576 23.4859 18.7835 23.5101 18.7156C23.5826 18.6192 23.6158 18.4989 23.6031 18.379C23.6402 18.2553 23.6768 18.1313 23.7072 18.0052ZM11.9744 18.1335C12.2513 18.76 12.6612 19.3137 13.1656 19.7644L12.0414 21.3117C12.0226 21.2969 12.0027 21.2835 11.9819 21.2717C11.9605 21.254 11.9421 21.2391 11.9112 21.2113C11.9106 21.2106 11.91 21.21 11.9094 21.2094C11.5089 20.8534 11.1482 20.4482 10.8419 20.0043C10.8416 20.0037 10.8413 20.0031 10.841 20.0025C10.7522 19.8751 10.6706 19.7405 10.5899 19.6017C10.5754 19.5664 10.5566 19.533 10.5341 19.5022C10.5341 19.5019 10.5341 19.5016 10.5341 19.5013C10.391 19.2553 10.2727 18.9931 10.1659 18.723L11.9744 18.1335ZM20.6852 18.1335L22.4965 18.7239C22.3862 18.9953 22.2674 19.2589 22.1246 19.5041C22.1025 19.5346 22.0841 19.5677 22.0697 19.6026C21.9891 19.7412 21.9073 19.8753 21.8187 20.0025C21.8184 20.0031 21.8181 20.0037 21.8178 20.0043C21.5115 20.4482 21.1508 20.8534 20.7503 21.2094C20.7497 21.21 20.7491 21.2106 20.7484 21.2113C20.7191 21.2377 20.7023 21.2516 20.6815 21.2689C20.681 21.2693 20.6801 21.2694 20.6796 21.2698C20.6581 21.2822 20.6376 21.2962 20.6183 21.3117L19.4941 19.7644C19.9984 19.3137 20.4084 18.76 20.6852 18.1335ZM13.9346 20.3261C14.5095 20.6629 15.159 20.8861 15.8537 20.9556V22.8273C15.4744 22.8 15.0923 22.7799 14.7333 22.6925L14.7342 22.6934C14.5133 22.6392 14.3071 22.5764 14.1066 22.5028C14.073 22.485 14.0374 22.4713 14.0006 22.4619C13.7372 22.3634 13.4789 22.2531 13.2381 22.1225C13.2366 22.1216 13.235 22.1206 13.2334 22.1197C13.0878 22.0431 12.9669 21.9341 12.828 21.8482L13.9346 20.3261ZM18.7251 20.3261L19.8316 21.8482C19.6927 21.9341 19.5719 22.0431 19.4262 22.1197C19.4247 22.1206 19.4231 22.1216 19.4216 22.1225C19.1799 22.2536 18.9206 22.3641 18.6563 22.4628C18.6201 22.472 18.5852 22.4854 18.5522 22.5028C18.3519 22.5763 18.1461 22.6393 17.9254 22.6934L17.9264 22.6925C17.5674 22.7799 17.1852 22.8 16.8059 22.8273V20.9556C17.5007 20.8861 18.1501 20.6629 18.7251 20.3261ZM9.98644 20.4302C10.0121 20.469 10.0331 20.5089 10.0599 20.5474C10.3583 20.9795 10.7193 21.3581 11.0957 21.7171L9.86742 23.1807C9.36003 22.7058 8.88599 22.2002 8.48939 21.6278C8.48939 21.6275 8.48939 21.6272 8.48939 21.6269C8.43527 21.5491 8.38782 21.4638 8.33597 21.3833L9.98644 20.4302ZM22.6732 20.4302L24.3237 21.3833C24.2718 21.4638 24.2244 21.5491 24.1703 21.6269C24.1703 21.6272 24.1703 21.6275 24.1703 21.6278C23.7737 22.2002 23.2996 22.7058 22.7922 23.1807L21.5639 21.7171C21.9404 21.3581 22.3013 20.9795 22.5998 20.5474L22.6016 20.5455C22.6279 20.5077 22.648 20.4682 22.6732 20.4302ZM11.8043 22.354C11.8764 22.4205 11.9674 22.463 12.0646 22.4758C12.3057 22.6392 12.5336 22.8267 12.789 22.9612L12.7899 22.9622C12.9517 23.0497 13.1216 23.1116 13.2883 23.1844L12.6384 24.9725C12.3927 24.8691 12.1446 24.7751 11.9066 24.6489C11.9053 24.6483 11.9041 24.6476 11.9028 24.647C11.4419 24.4079 11.0222 24.095 10.6066 23.7804L11.8043 22.354ZM20.8554 22.355L22.053 23.7804C21.6375 24.095 21.2178 24.4079 20.7568 24.647C20.7556 24.6476 20.7543 24.6483 20.7531 24.6489C20.515 24.7751 20.2669 24.8691 20.0213 24.9725L19.3713 23.1844C19.5381 23.1116 19.7079 23.0497 19.8697 22.9622L19.8707 22.9612C20.1261 22.8267 20.3539 22.6392 20.595 22.4758C20.6922 22.4633 20.7831 22.4211 20.8554 22.355ZM14.181 23.5182C14.2899 23.5499 14.3973 23.5907 14.5073 23.6177C14.5076 23.6177 14.508 23.6177 14.5083 23.6177C14.9393 23.7226 15.3971 23.7506 15.8537 23.7795V25.6829C15.2401 25.6516 14.6273 25.6073 14.0554 25.4644C14.0545 25.464 14.0536 25.4637 14.0526 25.4634C13.8702 25.4191 13.7035 25.3578 13.5301 25.3044L14.181 23.5182ZM18.4787 23.5182L19.1296 25.3044C18.9562 25.3578 18.7894 25.4191 18.607 25.4634C18.6061 25.4637 18.6052 25.464 18.6042 25.4644C18.0324 25.6073 17.4196 25.6516 16.8059 25.6829V23.7795C17.2626 23.7506 17.7204 23.7226 18.1514 23.6177C18.1517 23.6177 18.152 23.6177 18.1523 23.6177C18.2624 23.5907 18.3698 23.5499 18.4787 23.5182ZM12.7406 26.0557C12.7421 26.0563 12.7438 26.0561 12.7453 26.0567C12.7486 26.0578 12.7513 26.0601 12.7546 26.0613L12.7406 26.0557ZM19.919 26.0557L19.9051 26.0613C19.9084 26.0602 19.9111 26.0579 19.9144 26.0567C19.9158 26.0561 19.9175 26.0563 19.919 26.0557Z" fill="#FEFAFA"/>
</svg>
